<svg width="121" height="73" viewBox="0 0 121 73" fill="none" xmlns="http://www.w3.org/2000/svg">
<g clip-path="url(#clip0_12_487)">
<path d="M59.6651 8.37198C59.0614 7.5464 58.4448 6.83691 57.9567 6.03712C57.5328 5.35343 57.1603 4.60524 56.9548 3.83125C56.5566 2.41227 57.3658 1.26419 58.8301 1.28999C59.8963 1.31579 60.7441 1.19969 61.6047 0.451503C62.3625 -0.206387 63.4415 -0.0257897 64.3792 0.270906C65.1242 0.503102 65.8821 0.786898 66.5628 1.16099C71.2127 3.75385 74.8993 7.34 77.5582 11.9839C77.7765 12.358 77.9949 12.7321 78.1233 13.132C78.3931 13.9447 78.9583 14.4091 79.729 14.6671C80.641 14.9638 81.553 15.2734 82.465 15.5572C86.4469 16.8214 88.5021 19.698 89.1958 23.697C89.3242 24.4064 89.3627 25.1546 89.2728 25.877C89.0801 27.5669 88.1168 28.7537 86.6139 29.4761C85.2009 30.1598 83.6852 30.4177 82.1438 30.4951C80.2042 30.5983 78.2518 30.5983 76.3122 30.6499C75.7984 30.6628 75.2974 30.7015 74.7708 30.8176C75.1176 30.9208 75.4773 31.0111 75.8112 31.1401C76.8902 31.5271 77.7123 32.2108 78.1233 33.3073C78.5729 34.5199 78.1233 35.8099 76.9544 36.3775C76.2865 36.7 75.4901 36.8032 74.7451 36.9193C74.3983 36.9709 74.1928 37.0482 74.0001 37.3707C70.9301 42.5823 66.4601 45.8201 60.5128 46.9166C51.6112 48.5549 42.6326 43.4981 39.2287 35.0101C37.7001 31.1917 37.1991 27.3218 38.3167 23.2971C38.368 23.1036 38.291 22.8327 38.1754 22.6521C36.3 19.7367 37.957 16.2409 41.3866 15.841C41.6564 15.8152 41.9775 15.6217 42.1573 15.4024C46.4989 10.2812 51.9966 7.85599 58.7017 8.26878C58.9843 8.33328 59.2926 8.34618 59.6651 8.37198ZM62.1313 1.78018C62.1313 1.84468 62.1185 1.92208 62.1185 1.98658C65.0985 3.21206 67.4877 5.22443 69.7227 7.469C72.6771 10.436 74.9892 13.7641 74.9763 15.067C74.6552 14.6284 74.3341 14.164 73.9873 13.7383C71.4183 10.7197 68.4767 8.10109 65.3297 5.71462C64.315 4.94063 63.1846 4.29564 62.0286 3.75385C61.1422 3.34106 60.1403 3.10886 59.1641 2.92827C58.509 2.81217 58.3163 3.05726 58.6246 3.65065C59.1641 4.68264 59.7421 5.74042 60.4871 6.63051C62.6323 9.21047 65.3169 11.1712 68.0786 13.0417C69.2731 13.8544 70.5191 14.6026 71.7779 15.4024C70.9944 16.2667 70.198 17.0794 68.9649 17.1567C68.0143 17.2083 67.1666 16.8472 66.3702 16.3699C65.1242 15.6217 63.9168 14.7961 62.658 14.0737C59.4467 12.229 56.0171 11.5066 52.3563 12.1903C48.7725 12.8482 45.8438 14.68 43.4161 17.376C43.1207 17.7114 42.8895 17.8017 42.4399 17.6598C41.2325 17.2728 40.0122 17.7759 39.3956 18.8208C38.7534 19.9044 38.9332 21.1944 39.8966 22.1103C40.2049 22.407 40.282 22.6392 40.1407 23.0391C39.2929 25.5029 39.1387 28.0313 39.614 30.5983C41.4637 40.6215 52.2407 46.6973 61.8359 41.7309C64.0452 40.5828 65.9206 38.9961 67.5005 37.0482C64.8801 35.6551 62.1698 35.3842 59.2797 35.9002C59.6522 35.3068 60.0504 34.7908 60.4871 34.3006C63.4415 31.0369 63.6856 27.167 61.0523 23.9162C59.087 21.4782 56.518 20.3301 53.3967 20.8977C50.3267 21.4524 48.233 23.2713 47.2696 26.2898C46.5632 28.5086 46.9742 30.6628 47.7834 32.7655C47.9504 33.2041 48.1303 33.6298 48.3486 34.1587C45.3043 32.0689 44.6621 26.8058 46.91 23.2068C49.5689 18.9498 55.4648 17.4921 59.7935 20.0076C62.0542 21.3234 63.3644 23.3616 64.0966 25.7996C65.0343 28.9085 64.2636 31.6819 62.1442 34.0942C63.3516 34.2748 64.0067 33.4234 64.8159 32.8558C65.4967 32.3656 66.0362 31.8754 65.5738 30.9466C65.5609 30.9337 65.5866 30.9079 65.5995 30.8821C65.6252 30.8821 65.6508 30.8821 65.6637 30.895C65.7408 30.9724 65.8178 31.0498 65.8821 31.1272C67.4877 32.8945 69.4273 34.1458 71.7137 34.8424C72.9468 35.2165 74.2056 35.4874 75.503 35.2939C76.0039 35.2165 76.4792 35.0617 76.6333 34.4941C76.7875 33.9136 76.4792 33.4621 76.0425 33.1783C75.5415 32.8687 74.9763 32.6365 74.4111 32.4688C73.4221 32.1721 72.5486 31.7077 71.8421 30.9595C70.9301 29.9792 70.4292 28.5602 70.6347 27.5024C71.4311 28.6376 72.0605 30.0566 73.8331 29.1536C72.8954 27.7475 72.6642 27.167 72.7156 26.3027C73.2037 26.7671 73.679 27.2186 74.1799 27.6572C75.1947 28.5473 76.3764 29.0633 77.738 29.0891C78.6757 29.102 79.6262 29.102 80.5639 29.0504C82.2723 28.9601 83.9807 28.8698 85.5991 28.2119C87.1277 27.5927 87.8085 26.5865 87.7699 24.9353C87.7571 24.5741 87.7186 24.2129 87.6415 23.8517C87.0249 20.5107 85.3294 18.0726 81.964 17.0536C81.4502 16.8988 80.9493 16.7182 80.4355 16.5763C78.5601 16.099 77.3013 15.0928 76.3764 13.2352C73.9616 8.42358 70.1594 4.87614 65.4325 2.34777C64.8416 2.02528 64.1608 1.81888 63.5057 1.68988C63.069 1.59959 62.5937 1.74148 62.1313 1.78018ZM54.6684 72.4969H50.4809V55.1725C51.9067 55.1725 53.3196 55.1596 54.7197 55.1725C55.9786 55.1983 57.2502 55.1725 58.4962 55.3273C61.5918 55.7272 63.647 58.4748 63.3002 61.6353C63.0176 64.2152 61.7845 66.0083 59.1641 66.6275C59.999 68.4593 61.5019 68.8721 63.3387 68.5754V72.484C60.8083 72.7678 58.5861 72.226 56.9034 70.1749C56.1841 69.3107 55.5033 68.4206 54.6684 67.3757V72.4969ZM54.6555 63.8927C55.2335 63.8927 55.7473 63.9056 56.2611 63.8927C56.5951 63.8798 56.9419 63.8411 57.2759 63.7766C58.4191 63.5186 59.087 62.6673 59.1127 61.4676C59.1256 60.3195 58.4833 59.4165 57.3273 59.2101C56.4795 59.0553 55.606 59.0811 54.7197 59.0166C54.6812 59.2101 54.6555 59.2875 54.6555 59.3649V63.8927Z" fill="#374957"/>
<path d="M83.0173 71.1424V72.484H79.2923V71.7874V58.6941C79.2923 55.9207 80.2813 55.0048 83.1329 55.1983V60.4872C84.0449 59.7132 84.9441 59.2617 86.0102 59.1069C89.5426 58.6296 92.7281 61.0935 93.1649 64.6409C93.3961 66.4856 93.2034 68.24 92.2657 69.8653C90.9427 72.1486 88.1938 73.3612 85.612 72.8194C84.5972 72.6259 83.7366 72.1486 83.0173 71.1424ZM83.0302 65.9696C83.0173 67.8659 84.3789 69.3365 86.1643 69.3365C87.9498 69.3365 89.3756 67.8788 89.4013 66.0341C89.427 64.2152 88.0397 62.7447 86.2799 62.706C84.4688 62.6802 83.043 64.112 83.0302 65.9696ZM98.1616 55.2112V60.3969C101.244 58.32 104.777 58.7844 106.87 61.4934C109.876 65.3762 107.949 71.581 103.377 72.7678C101.27 73.3096 99.4332 72.8194 98.0331 71.2585C98.0074 71.6971 97.9946 72.0712 97.9689 72.484H94.2824V71.7616V58.6812C94.2952 55.9078 95.31 54.9661 98.1616 55.2112ZM98.0203 65.9438C97.9946 67.8788 99.3048 69.3236 101.103 69.3365C102.901 69.3623 104.327 67.9175 104.353 66.0728C104.379 64.1894 103.004 62.7318 101.219 62.7189C99.4075 62.706 98.046 64.0862 98.0203 65.9438Z" fill="#374957"/>
<path d="M20.0768 60.7839C20.4878 59.6874 20.7447 59.5068 21.8622 59.5068C22.5302 59.5068 23.1852 59.5197 23.8532 59.5197C23.8917 59.5197 23.9303 59.5584 23.9945 59.5842V72.4711C23.0311 72.4711 22.0806 72.5227 21.13 72.4582C20.4878 72.4195 20.2823 71.839 20.1153 71.2972C16.7114 74.5609 11.2779 72.8323 10.0962 68.111C9.4154 65.402 9.83928 62.8737 11.8945 60.8484C13.4616 59.3004 15.414 58.7844 17.572 59.1972C18.5739 59.3907 19.4088 59.9067 20.0768 60.7839ZM20.1153 66.0083C20.1153 64.112 18.7794 62.7447 16.904 62.7318C15.0672 62.7189 13.7185 64.112 13.7185 66.0341C13.7056 67.8917 15.1314 69.3494 16.9297 69.3365C18.7666 69.3236 20.1153 67.9046 20.1153 66.0083Z" fill="#374957"/>
<path d="M73.679 60.8226C74.09 59.6745 74.3212 59.5197 75.503 59.5197H77.571V72.5098C76.6719 72.5098 75.7984 72.5485 74.9249 72.4969C74.1671 72.4582 73.8588 71.9035 73.7175 71.2069C71.9963 73.1677 69.1318 73.5934 66.717 72.1486C64.2251 70.6651 63.3387 68.3174 63.48 65.531C63.6085 62.8865 64.7902 60.8613 67.2051 59.6745C68.4254 59.0811 69.7356 58.9005 71.0714 59.1714C72.1504 59.3907 73.0496 59.8938 73.679 60.8226ZM67.3335 66.047C67.3335 67.9046 68.7593 69.3493 70.5576 69.3364C72.3688 69.3235 73.7432 67.9046 73.756 66.0212C73.7689 64.1378 72.3559 62.7059 70.4806 62.7188C68.6566 62.7317 67.3335 64.1249 67.3335 66.047Z" fill="#374957"/>
<path d="M43.7501 65.1827C44.9319 67.5692 46.3448 69.5686 49.4404 69.1042V72.5614C46.5375 72.5614 44.0199 71.839 42.3115 69.2848C41.6821 68.3432 41.0783 67.3886 40.3719 66.2921V72.5098H36.5055V55.1854C36.9551 55.1854 37.379 55.1596 37.8029 55.1854C39.37 55.3144 40.3333 56.3463 40.3462 57.9459C40.359 59.7777 40.3462 61.5966 40.3462 63.4283V64.241C41.3866 62.8865 42.35 61.7127 43.1978 60.4743C43.6987 59.739 44.2511 59.4423 45.1374 59.5068C46.2163 59.5971 47.3082 59.5326 48.5413 59.5326C46.8843 61.4805 45.3044 63.3509 43.7501 65.1827Z" fill="#374957"/>
<path d="M4.03334 59.0682H0.128453C-0.398193 56.6173 0.745013 55.1596 3.15988 55.1596H12.1V59.0424H8.46487V72.5614C7.56571 72.5098 6.73079 72.5356 5.92155 72.3937C4.7655 72.1744 4.03334 71.0392 4.03334 69.5945C4.02049 66.3308 4.03334 63.0543 4.03334 59.7906V59.0682ZM35.1183 63.1575H31.3418C31.2262 62.3835 30.6996 62.1771 30.0059 62.2158C29.5692 62.2416 29.1196 62.3964 29.1068 62.8608C29.094 63.1833 29.2995 63.6218 29.5564 63.8024C29.9803 64.0991 30.5069 64.2668 31.0079 64.4474C31.7272 64.7054 32.4722 64.9118 33.1915 65.1827C36.3642 66.4082 35.9147 70.1491 34.1164 71.6713C32.1511 73.3225 28.6701 73.4257 26.6406 71.839C25.6386 71.0521 25.1505 69.9943 24.9835 68.6399H27.4113C27.7067 68.6399 28.015 68.6528 28.3104 68.6399C28.6444 68.6141 28.8242 68.6915 28.9783 69.0527C29.3509 69.9298 30.7124 70.1233 31.3804 69.4397C31.8042 69.014 31.74 68.3561 31.1877 68.0078C30.7253 67.724 30.1986 67.5176 29.6848 67.3112C28.9527 67.0145 28.1948 66.7823 27.4755 66.4598C24.1101 64.9634 24.8679 61.545 26.8461 60.1002C28.6315 58.7973 31.4831 58.707 33.3328 59.9325C34.4246 60.6678 34.9641 61.7643 35.1183 63.1575Z" fill="#374957"/>
<path d="M118.547 55.237V59.4939H121V62.4609H118.547V64.6667C118.547 65.3504 118.534 66.047 118.559 66.7307C118.598 67.9046 119.15 68.4722 120.332 68.5883C120.538 68.6141 120.756 68.6141 121 68.627V72.4324C118.624 73.0129 115.541 71.0134 114.899 68.4077C114.732 67.724 114.68 67.0016 114.667 66.305C114.642 63.7122 114.655 61.1064 114.655 58.5135C114.667 55.9594 115.926 54.8758 118.547 55.237Z" fill="#374957"/>
<path d="M113.139 59.5842V72.484H109.285V71.7874C109.285 68.7817 109.362 65.7761 109.26 62.7704C109.17 59.9067 111.174 59.2488 113.139 59.5842Z" fill="#374957"/>
<path d="M111.251 58.7715C110.107 58.7844 109.221 57.8943 109.208 56.7591C109.195 55.624 110.082 54.6952 111.199 54.6823C112.304 54.6694 113.242 55.5853 113.254 56.7204C113.267 57.8427 112.381 58.7586 111.251 58.7715Z" fill="#374957"/>
<path d="M82.8889 20.4204C82.8889 21.0912 82.4007 21.5943 81.7328 21.6072C80.8722 21.6201 80.0501 20.8203 80.0501 19.9302C80.0501 19.2078 80.5254 18.7434 81.2704 18.7692C82.131 18.795 82.8889 19.5561 82.8889 20.4204Z" fill="#374957"/>
</g>
<defs>
<clipPath id="clip0_12_487">
<rect width="121" height="73" fill="white"/>
</clipPath>
</defs>
</svg>
