<svg width="24" height="24" viewBox="0 0 24 24" fill="none" xmlns="http://www.w3.org/2000/svg">
<g clip-path="url(#clip0_36_31)">
<path d="M22.94 1.06006C22.2602 0.38126 21.3387 0 20.378 0C19.4173 0 18.4958 0.38126 17.816 1.06006L0 18.8761V24.0001H5.124L22.94 6.18406C23.6186 5.50409 23.9997 4.58269 23.9997 3.62206C23.9997 2.66143 23.6186 1.74004 22.94 1.06006ZM4.3 22.0001H2V19.7001L15.31 6.40006L17.61 8.70006L4.3 22.0001ZM21.526 4.77006L19.019 7.27706L16.724 4.97706L19.23 2.47406C19.535 2.16906 19.9487 1.99772 20.38 1.99772C20.8113 1.99772 21.225 2.16906 21.53 2.47406C21.835 2.77906 22.0063 3.19273 22.0063 3.62406C22.0063 4.0554 21.835 4.46906 21.53 4.77406L21.526 4.77006Z" fill="#374957"/>
</g>
<defs>
<clipPath id="clip0_36_31">
<rect width="24" height="24" fill="white"/>
</clipPath>
</defs>
</svg>
